<svg width="68" height="68" viewBox="0 0 68 68" fill="none" xmlns="http://www.w3.org/2000/svg">
<rect width="68" height="68" fill="white"/>
<path d="M8.30907 60.2305C7.93774 60.2305 7.63672 59.9294 7.63672 59.5581L7.63672 32.1802C7.63672 31.7089 8.12384 31.3444 8.59215 31.3982C11.3245 31.7122 17.5349 31.2399 17.9857 31.205C18.0034 31.2036 18.0205 31.2029 18.0382 31.2029H19.8254C20.1967 31.2029 20.4977 31.504 20.4977 31.8753V59.5581C20.4977 59.9294 20.1967 60.2305 19.8254 60.2305H8.30907Z" fill="#03696B" fill-opacity="0.3"/>
<path d="M15.6094 60.2305L15.6094 31.2029H22.1788C22.1788 31.2029 23.9946 33.064 22.1788 36.7584C19.8341 41.5286 21.1927 51.2444 26.1648 49.7722C31.137 48.3 31.137 60.2305 31.137 60.2305H15.6094Z" fill="#03696B"/>
<path d="M31.1367 60.2305V47.1056H49.3171L51.2136 31.2029L60.1643 31.2029V60.2305H31.1367Z" fill="#A386DA" fill-opacity="0.3"/>
<path d="M31.1367 48.3138C31.1367 48.3138 32.1614 40.9183 35.8732 39.1049C39.537 37.3149 42.7089 42.7624 46.2489 40.7537C49.6179 38.8419 47.1136 34.3432 49.9992 31.7994C54.9333 27.4498 49.9992 48.3138 49.9992 48.3138H31.1367Z" fill="#A386DA"/>
<path d="M7.77539 11.2309C7.77539 9.28255 9.35482 7.70312 11.3031 7.70312H56.775C58.7233 7.70312 60.3027 9.28255 60.3027 11.2309V21.1752H7.77539V11.2309Z" fill="#EEA166" fill-opacity="0.35"/>
<path d="M7.79766 27.5225C7.79766 27.5225 6.78823 31.3564 10.9921 30.913C14.7203 30.5199 24.8017 30.3217 27.1447 27.5225C32.5613 21.0512 42.0613 22.2266 42.0613 22.2266C47.4873 22.9368 51.029 30.8332 56.5334 30.913C61.1757 30.9804 60.325 27.5225 60.325 27.5225V17.3933H7.79766V27.5225Z" fill="#FE7308"/>
<path d="M53.5254 53.507H60.1648V58.8858C60.1648 59.6284 59.5628 60.2305 58.8201 60.2305H53.5254V53.507Z" fill="#E2D7ED"/>
<path d="M59.9125 59.8103C60.0464 59.6355 60.1646 59.306 60.1646 59.306V60.2305H59.4082C59.4082 60.2305 59.7565 60.0137 59.9125 59.8103Z" fill="white"/>
<circle cx="34" cy="34" r="14.6094" fill="#3E63D3" fill-opacity="0.55"/>
</svg>
