<svg width="39" height="108" viewBox="0 0 39 108" fill="none" xmlns="http://www.w3.org/2000/svg">
<rect x="2.80078" width="28" height="28" fill="white"/>
<path d="M6.22216 24.8008C6.06926 24.8008 5.94531 24.6768 5.94531 24.5239L5.94531 13.2507C5.94531 13.0566 6.14589 12.9065 6.33873 12.9287C7.4638 13.0579 10.021 12.8635 10.2067 12.8491C10.2139 12.8485 10.221 12.8483 10.2283 12.8483H10.9642C11.1171 12.8483 11.241 12.9722 11.241 13.1251V24.5239C11.241 24.6768 11.1171 24.8008 10.9642 24.8008H6.22216Z" fill="#03696B" fill-opacity="0.3"/>
<path d="M9.22852 24.8008V12.8483H11.9336C11.9336 12.8483 12.6813 13.6146 11.9336 15.1358C10.9681 17.1 11.5275 21.1006 13.5749 20.4944C15.6223 19.8882 15.6223 24.8008 15.6223 24.8008H9.22852Z" fill="#03696B"/>
<path d="M15.6211 24.8008V19.3964H23.1071L23.888 12.8483H27.5736V24.8008H15.6211Z" fill="#A386DA" fill-opacity="0.3"/>
<path d="M15.6211 19.894C15.6211 19.894 16.043 16.8488 17.5714 16.1021C19.08 15.3651 20.3861 17.6081 21.8438 16.781C23.231 15.9938 22.1998 14.1414 23.388 13.094C25.4197 11.3029 23.388 19.894 23.388 19.894H15.6211Z" fill="#A386DA"/>
<path d="M6.00391 4.62448C6.00391 3.82223 6.65426 3.17188 7.45651 3.17188H26.1802C26.9825 3.17188 27.6328 3.82223 27.6328 4.62448V8.71921H6.00391V4.62448Z" fill="#EEA166" fill-opacity="0.35"/>
<path d="M6.0125 11.3328C6.0125 11.3328 5.59685 12.9115 7.32785 12.729C8.86298 12.5671 13.0142 12.4855 13.9789 11.3328C16.2093 8.66818 20.121 9.15217 20.121 9.15217C22.3553 9.44462 23.8137 12.6961 26.0801 12.729C27.9917 12.7567 27.6414 11.3328 27.6414 11.3328V7.16199H6.0125V11.3328Z" fill="#FE7308"/>
<path d="M24.8398 22.0322H27.5737V24.247C27.5737 24.5528 27.3258 24.8007 27.02 24.8007H24.8398V22.0322Z" fill="#E2D7ED"/>
<path d="M27.4713 24.6278C27.5265 24.5559 27.5751 24.4202 27.5751 24.4202V24.8008H27.2637C27.2637 24.8008 27.4071 24.7116 27.4713 24.6278Z" fill="white"/>
<circle cx="16.8008" cy="14" r="6.01563" fill="#3E63D3" fill-opacity="0.55"/>
<path d="M11.8008 83L12.6987 82.5599L11.8008 83ZM35.1163 103.449C35.6403 103.275 35.9239 102.709 35.7497 102.185L32.9104 93.6441C32.7362 93.12 32.1701 92.8364 31.646 93.0107C31.1219 93.1849 30.8383 93.751 31.0125 94.2751L33.5364 101.867L25.9449 104.39C25.4208 104.565 25.1372 105.131 25.3115 105.655C25.4857 106.179 26.0518 106.462 26.5759 106.288L35.1163 103.449ZM19.8008 39C18.926 38.5154 18.9259 38.5157 18.9256 38.5161C18.9255 38.5164 18.9252 38.5169 18.9249 38.5175C18.9243 38.5186 18.9234 38.5201 18.9223 38.5221C18.9202 38.5261 18.917 38.5317 18.913 38.5391C18.9049 38.5538 18.8932 38.5753 18.8778 38.6034C18.8472 38.6596 18.8025 38.7422 18.7448 38.8501C18.6293 39.0658 18.462 39.3825 18.2524 39.7901C17.8333 40.6052 17.2447 41.7844 16.5633 43.2475C15.2013 46.172 13.4641 50.2399 11.9679 54.8079C10.4731 59.3716 9.20928 64.4633 8.81112 69.4291C8.41361 74.3868 8.87253 79.298 10.9028 83.4401L12.6987 82.5599C10.8856 78.8609 10.4229 74.3515 10.8047 69.589C11.1859 64.8346 12.4025 59.9065 13.8686 55.4304C15.3332 50.9587 17.0373 46.9671 18.3763 44.0919C19.0454 42.6552 19.6223 41.4995 20.0311 40.7047C20.2354 40.3074 20.3976 40.0003 20.5082 39.7936C20.5635 39.6902 20.6059 39.612 20.6342 39.5601C20.6483 39.5341 20.6589 39.5147 20.6659 39.5021C20.6694 39.4958 20.6719 39.4911 20.6735 39.4882C20.6743 39.4868 20.6749 39.4857 20.6752 39.4851C20.6754 39.4848 20.6755 39.4847 20.6756 39.4845C20.6756 39.4845 20.6755 39.4846 19.8008 39ZM10.9028 83.4401C13.6149 88.9732 19.5541 93.9709 24.6729 97.5358C27.2541 99.3334 29.6694 100.795 31.4393 101.808C32.3247 102.315 33.0499 102.71 33.5552 102.979C33.8079 103.113 34.0056 103.216 34.141 103.286C34.2087 103.321 34.2609 103.347 34.2965 103.366C34.3143 103.375 34.328 103.382 34.3374 103.386C34.3421 103.389 34.3458 103.391 34.3484 103.392C34.3496 103.392 34.3507 103.393 34.3514 103.393C34.3518 103.394 34.3522 103.394 34.3523 103.394C34.3526 103.394 34.3529 103.394 34.8008 102.5C35.2487 101.606 35.2488 101.606 35.2488 101.606C35.2487 101.606 35.2487 101.606 35.2485 101.606C35.2482 101.606 35.2476 101.605 35.2467 101.605C35.245 101.604 35.2422 101.603 35.2383 101.601C35.2306 101.597 35.2186 101.591 35.2025 101.583C35.1704 101.566 35.1219 101.541 35.0578 101.508C34.9297 101.442 34.7396 101.343 34.495 101.213C34.0056 100.953 33.2984 100.568 32.4325 100.072C30.6997 99.0807 28.3368 97.6502 25.8159 95.8946C20.7304 92.3529 15.1695 87.6007 12.6987 82.5599L10.9028 83.4401Z" fill="white"/>
</svg>
